# xmcd
#
# Track frame offsets: 
#        150
#        9882
#        21676
#        41964
#        56589
#        78246
#        89496
#        105828
#        124147
#        144772
#        158854
#        174811
#        199205
#        219568
#
# Disc length: 3099 seconds
#
# Revision: 0
# Processed by: cddbd v1.5.2PL0 Copyright (c) Steve Scherf et al.
# Submitted via: ExactAudioCopy v1.0b6
#
DISCID=b30c190e
DTITLE=Tina Turner  - The Many Faces Of Tina Turner
DYEAR=2018
DGENRE=Soul
TTITLE0=Ike Turner, Carlson Oliver and Tina Turner (Aka Little Ann) - Bo
TTITLE0=xtop
TTITLE1=Tina Turner and Tom Jones - Hot Legs
TTITLE2=Tina Turner and Chuck Berry - Rock And Roll Music
TTITLE3=Al Green - Let's Stay Together
TTITLE4=Barry White - Just The Way You Are
TTITLE5=Ann Peebles - I Can't Stand The Rain
TTITLE6=The Trammps - Disco Inferno
TTITLE7=The Temptations - Ball Of Confusion
TTITLE8=Heaven 17 - Rocket Man
TTITLE9=The Fixx - One Thing Leads To Another
TTITLE10=John Waite - Missing You
TTITLE11=Sting - All This Time
TTITLE12=David Bowie - Let's Dance
TTITLE13=Rod Stewart - The Day Will Come
EXTD=
EXTT0=
EXTT1=
EXTT2=
EXTT3=
EXTT4=
EXTT5=
EXTT6=
EXTT7=
EXTT8=
EXTT9=
EXTT10=
EXTT11=
EXTT12=
EXTT13=
PLAYORDER=
